%FSLAX34Y34*%
%MOMM*%
%LNCOPPER_BOTTOM*%
G71*
G01*
%ADD10C, 0.10*%
%ADD11C, 0.09*%
%LPD*%
G54D10*
G75*
G01X-366344Y885000D02*
G03X-366344Y885000I23164J0D01*
G01*
G54D10*
G75*
G01X-415942Y884545D02*
G03X-415942Y884545I22306J0D01*
G01*
G54D10*
X-327489Y929775D02*
X-357924Y929775D01*
X-357957Y929666D01*
G54D10*
X-331390Y917151D02*
X-331467Y917151D01*
X-342305Y927989D01*
X-352989Y917304D01*
X-331544Y917304D01*
X-331390Y917151D01*
G54D10*
X-379831Y930897D02*
X-410266Y930897D01*
X-410299Y930788D01*
G54D10*
X-383732Y918273D02*
X-383809Y918273D01*
X-394647Y929111D01*
X-405331Y918427D01*
X-383886Y918427D01*
X-383732Y918273D01*
G54D11*
X-390566Y836050D02*
X-403899Y836050D01*
X-403899Y841050D01*
X-403066Y843050D01*
X-401399Y844050D01*
X-393066Y844050D01*
X-391399Y843050D01*
X-390566Y841050D01*
X-390566Y836050D01*
G54D11*
X-390566Y854717D02*
X-390566Y846717D01*
X-391399Y846717D01*
X-393066Y847717D01*
X-398066Y853717D01*
X-399733Y854717D01*
X-401399Y854717D01*
X-403066Y853717D01*
X-403899Y851717D01*
X-403899Y849717D01*
X-403066Y847717D01*
X-401399Y846717D01*
G54D11*
X-335220Y838421D02*
X-348553Y838421D01*
X-348553Y843421D01*
X-347720Y845421D01*
X-346053Y846421D01*
X-337720Y846421D01*
X-336053Y845421D01*
X-335220Y843421D01*
X-335220Y838421D01*
G54D11*
X-343553Y849088D02*
X-348553Y854088D01*
X-335220Y854088D01*
G54D10*
G75*
G01X-288983Y939510D02*
G03X-288983Y939510I12410J0D01*
G01*
G54D10*
G75*
G01X-279400Y869822D02*
G03X-279400Y869822I10761J0D01*
G01*
G54D11*
X-289403Y961356D02*
X-290403Y959689D01*
X-292403Y958856D01*
X-294403Y958856D01*
X-296403Y959689D01*
X-297403Y961356D01*
X-297403Y969689D01*
X-296403Y971356D01*
X-294403Y972189D01*
X-292403Y972189D01*
X-290403Y971356D01*
X-289403Y969689D01*
G54D11*
X-279736Y958856D02*
X-286736Y958856D01*
X-286736Y972189D01*
X-279736Y972189D01*
G54D11*
X-286736Y965522D02*
X-279736Y965522D01*
G54D11*
X-271069Y958856D02*
X-271069Y972189D01*
X-277069Y963856D01*
X-277069Y962189D01*
X-269069Y962189D01*
G54D11*
X-240309Y866268D02*
X-241309Y864601D01*
X-243309Y863768D01*
X-245309Y863768D01*
X-247309Y864601D01*
X-248309Y866268D01*
X-248309Y874601D01*
X-247309Y876268D01*
X-245309Y877101D01*
X-243309Y877101D01*
X-241309Y876268D01*
X-240309Y874601D01*
G54D11*
X-230642Y863768D02*
X-237642Y863768D01*
X-237642Y877101D01*
X-230642Y877101D01*
G54D11*
X-237642Y870435D02*
X-230642Y870435D01*
G54D11*
X-227975Y874601D02*
X-226975Y876268D01*
X-224975Y877101D01*
X-222975Y877101D01*
X-220975Y876268D01*
X-219975Y874601D01*
X-219975Y872935D01*
X-220975Y871268D01*
X-222975Y870435D01*
X-220975Y869601D01*
X-219975Y867935D01*
X-219975Y866268D01*
X-220975Y864601D01*
X-222975Y863768D01*
X-224975Y863768D01*
X-226975Y864601D01*
X-227975Y866268D01*
G54D10*
X-40984Y977049D02*
X-40984Y931148D01*
X-97702Y931148D01*
X-101689Y935135D01*
X-101689Y977027D01*
X-101858Y977196D01*
G54D11*
X-181449Y847826D02*
X-181449Y855826D01*
X-168116Y847826D01*
X-168116Y855826D01*
G54D11*
X-168116Y858493D02*
X-181449Y858493D01*
X-181449Y863493D01*
X-180616Y865493D01*
X-178949Y866493D01*
X-170616Y866493D01*
X-168949Y865493D01*
X-168116Y863493D01*
X-168116Y858493D01*
G54D11*
X-176449Y869160D02*
X-181449Y874160D01*
X-168116Y874160D01*
G54D11*
X-170338Y761353D02*
X-159505Y761353D01*
X-157838Y762353D01*
X-157005Y764353D01*
X-157005Y766353D01*
X-157838Y768353D01*
X-159505Y769353D01*
X-170338Y769353D01*
G54D11*
X-165338Y772020D02*
X-170338Y777020D01*
X-157005Y777020D01*
G54D10*
X-97585Y810628D02*
X-97585Y801449D01*
X-97633Y800627D01*
X-101932Y800483D01*
X-105317Y798691D01*
X-107701Y795169D01*
X-108292Y790307D01*
X-107246Y785990D01*
X-106763Y785507D01*
X-105240Y784143D01*
X-101709Y780936D01*
X-97585Y780449D01*
X-97585Y771014D01*
X-134300Y771014D01*
X-138526Y771016D01*
X-138864Y809178D01*
X-138903Y810719D01*
G54D11*
X-25071Y767666D02*
X-23404Y766666D01*
X-22571Y764666D01*
X-22571Y762666D01*
X-23404Y760666D01*
X-25071Y759666D01*
X-33404Y759666D01*
X-35071Y760666D01*
X-35904Y762666D01*
X-35904Y764666D01*
X-35071Y766666D01*
X-33404Y767666D01*
G54D11*
X-35904Y770333D02*
X-29238Y775333D01*
X-22571Y775333D01*
G54D11*
X-29238Y775333D02*
X-35904Y780333D01*
G54D11*
X-30904Y783000D02*
X-35904Y788000D01*
X-22571Y788000D01*
G54D10*
X-51714Y792571D02*
X-79429Y792571D01*
X-79714Y792857D01*
G54D10*
X-51714Y782000D02*
X-79143Y782000D01*
X-79429Y782286D01*
G54D10*
X-66286Y812571D02*
X-66286Y792286D01*
G54D10*
X-66000Y782000D02*
X-66000Y762000D01*
G54D11*
X-362264Y735441D02*
X-375597Y735441D01*
G54D11*
X-375597Y731441D02*
X-375597Y739441D01*
G54D11*
X-370597Y742108D02*
X-375597Y747108D01*
X-362264Y747108D01*
G54D11*
X-239748Y648000D02*
X-228915Y648000D01*
X-227248Y649000D01*
X-226415Y651000D01*
X-226415Y653000D01*
X-227248Y655000D01*
X-228915Y656000D01*
X-239748Y656000D01*
G54D11*
X-226415Y666667D02*
X-226415Y658667D01*
X-227248Y658667D01*
X-228915Y659667D01*
X-233915Y665667D01*
X-235582Y666667D01*
X-237248Y666667D01*
X-238915Y665667D01*
X-239748Y663667D01*
X-239748Y661667D01*
X-238915Y659667D01*
X-237248Y658667D01*
G54D10*
X-203774Y629560D02*
X-250314Y629560D01*
X-251443Y629389D01*
X-251572Y545912D01*
X-251659Y542331D01*
X-251658Y538521D01*
X-251658Y533838D01*
X-251570Y524338D01*
X-238994Y524528D01*
X-205660Y524528D01*
X-203145Y527044D01*
X-203145Y628931D01*
X-203774Y629560D01*
G54D10*
G75*
G01X-235266Y451050D02*
G03X-235266Y451050I3446J0D01*
G01*
G54D10*
G75*
G01X-259292Y451050D02*
G03X-259292Y451050I27472J0D01*
G01*
G54D10*
X-210063Y809434D02*
X-349686Y809434D01*
X-350314Y808805D01*
X-350314Y708805D01*
X-350943Y708176D01*
X-211321Y708176D01*
X-210063Y709434D01*
X-210063Y809434D01*
G54D10*
X-141143Y886286D02*
X-157714Y886286D01*
X-157714Y853714D01*
X-141143Y853714D01*
X-141143Y886286D01*
G54D10*
G75*
G01X-330200Y694545D02*
G03X-330200Y694545I5200J0D01*
G01*
G54D10*
G75*
G01X-338647Y694545D02*
G03X-338647Y694545I13647J0D01*
G01*
G54D10*
X-141143Y876286D02*
X-157714Y876286D01*
X-158000Y876000D01*
G54D10*
G75*
G01X-160377Y554545D02*
G03X-160377Y554545I14223J0D01*
G01*
G54D11*
X-116336Y526692D02*
X-114669Y525692D01*
X-113836Y523692D01*
X-113836Y521692D01*
X-114669Y519692D01*
X-116336Y518692D01*
X-124669Y518692D01*
X-126336Y519692D01*
X-127169Y521692D01*
X-127169Y523692D01*
X-126336Y525692D01*
X-124669Y526692D01*
G54D11*
X-113836Y536359D02*
X-113836Y529359D01*
X-127169Y529359D01*
X-127169Y536359D01*
G54D11*
X-120503Y529359D02*
X-120503Y536359D01*
G54D11*
X-122169Y539026D02*
X-127169Y544026D01*
X-113836Y544026D01*
G54D11*
X-167280Y385956D02*
X-165613Y384956D01*
X-164780Y382956D01*
X-164780Y380956D01*
X-165613Y378956D01*
X-167280Y377956D01*
X-175613Y377956D01*
X-177280Y378956D01*
X-178113Y380956D01*
X-178113Y382956D01*
X-177280Y384956D01*
X-175613Y385956D01*
G54D11*
X-164780Y395623D02*
X-164780Y388623D01*
X-178113Y388623D01*
X-178113Y395623D01*
G54D11*
X-171447Y388623D02*
X-171447Y395623D01*
G54D11*
X-164780Y406290D02*
X-164780Y398290D01*
X-165613Y398290D01*
X-167280Y399290D01*
X-172280Y405290D01*
X-173947Y406290D01*
X-175613Y406290D01*
X-177280Y405290D01*
X-178113Y403290D01*
X-178113Y401290D01*
X-177280Y399290D01*
X-175613Y398290D01*
G54D11*
X-391692Y381264D02*
X-391692Y394598D01*
X-384692Y394598D01*
G54D11*
X-391692Y387931D02*
X-384692Y387931D01*
G54D11*
X-378024Y387931D02*
X-375024Y386264D01*
X-374024Y384598D01*
X-374024Y381264D01*
G54D11*
X-382024Y381264D02*
X-382024Y394598D01*
X-377024Y394598D01*
X-375024Y393764D01*
X-374024Y392098D01*
X-374024Y390431D01*
X-375024Y388764D01*
X-377024Y387931D01*
X-382024Y387931D01*
G54D11*
X-371358Y389598D02*
X-366358Y394598D01*
X-366358Y381264D01*
G54D10*
X-122642Y259120D02*
X-122642Y318239D01*
X-333333Y318239D01*
X-333962Y317610D01*
X-333962Y226415D01*
X-333333Y225786D01*
G54D10*
X-48327Y971747D02*
X-65056Y971747D01*
G54D10*
X-56877Y981041D02*
X-56877Y963941D01*
G54D11*
X-24286Y934571D02*
X-37619Y934571D01*
X-37619Y939571D01*
X-36786Y941571D01*
X-35119Y942571D01*
X-26786Y942571D01*
X-25119Y941571D01*
X-24286Y939571D01*
X-24286Y934571D01*
G54D11*
X-26786Y953238D02*
X-25119Y952238D01*
X-24286Y950238D01*
X-24286Y948238D01*
X-25119Y946238D01*
X-26786Y945238D01*
X-35119Y945238D01*
X-36786Y946238D01*
X-37619Y948238D01*
X-37619Y950238D01*
X-36786Y952238D01*
X-35119Y953238D01*
G54D11*
X-32619Y955905D02*
X-37619Y960905D01*
X-24286Y960905D01*
M02*
