; Drill file
; Format: 2.4 (00.0000)
M48
INCH
T01C0.0315
T02C0.0354
T03C0.0433
T04C0.0453
T05C0.05
T06C0.0591
T07C0.0906
%
G05
G90
T01
X-011450Y014630
X-016230Y014600
X-005750Y021830
X-005670Y022950
X-005140Y029220
X-004150Y029280
X-002740Y028870
T02
X-002750Y032720
X-004130Y032750
X-005110Y032720
X-005850Y032830
X-005920Y035230
X-003240Y037510
X-002270Y037500
X-010890Y036990
X-011880Y036990
X-011580Y034290
X-010580Y034240
T03
X-007500Y021500
X-007500Y022500
X-007560Y023410
X-007560Y024410
X-010500Y024500
X-010500Y023500
X-010500Y022500
X-010500Y021500
T04
X-009130Y017760
X-011190Y017690
X-011790Y027340
X-012800Y027340
X-009900Y027330
X-008890Y027310
T05
X-007050Y011400
X-010760Y011370
X-012780Y032370
X-008890Y032390
T06
X-013480Y037470
X-015540Y037470
T07
X-013510Y034840
X-015500Y034820
M30
