%FSLAX34Y34*%
%MOMM*%
%LNSILK_TOP*%
G71*
G01*
%ADD10C, 1.80*%
%ADD11C, 1.80*%
%ADD12C, 3.00*%
%ADD13C, 2.20*%
%ADD14C, 3.81*%
%ADD15C, 1.80*%
%ADD16C, 2.50*%
%ADD17C, 2.54*%
%ADD18C, 2.10*%
%ADD19C, 2.00*%
%ADD20R, 1.40X1.00*%
%ADD21R, 1.40X1.70*%
%ADD22R, 1.40X1.40*%
%ADD23R, 1.40X1.60*%
%ADD24R, 1.20X1.10*%
%ADD25R, 1.40X2.00*%
%ADD26R, 1.60X1.70*%
%ADD27C, 0.10*%
%ADD28C, 1.00*%
%ADD29C, 1.10*%
%ADD30C, 0.90*%
%ADD31C, 1.50*%
%ADD32C, 1.27*%
%ADD33C, 2.30*%
%ADD34C, 0.80*%
%ADD35C, 1.15*%
%LPD*%
X-191946Y594627D02*
G54D10*
D03*
X-190500Y571500D02*
G54D10*
D03*
X-192089Y620099D02*
G54D10*
D03*
X-266700Y622300D02*
G54D10*
D03*
X-266700Y596900D02*
G54D10*
D03*
X-266700Y571500D02*
G54D10*
D03*
X-266700Y546100D02*
G54D10*
D03*
G36*
X-181500Y555100D02*
X-199500Y555100D01*
X-199500Y537100D01*
X-181500Y537100D01*
X-181500Y555100D01*
G37*
X-57690Y952450D02*
G54D11*
D03*
X-82170Y952800D02*
G54D11*
D03*
X-276573Y939510D02*
G54D11*
D03*
X-342268Y951800D02*
G54D12*
D03*
X-150350Y894755D02*
G54D11*
D03*
X-148601Y833916D02*
G54D11*
D03*
X-129720Y831119D02*
G54D11*
D03*
X-104895Y831818D02*
G54D11*
D03*
X-69930Y831119D02*
G54D11*
D03*
G36*
X-292818Y948545D02*
X-310818Y948545D01*
X-310818Y930545D01*
X-292818Y930545D01*
X-292818Y948545D01*
G37*
X-394628Y951860D02*
G54D12*
D03*
X-268639Y869822D02*
G54D11*
D03*
G36*
X-285083Y880006D02*
X-303083Y880006D01*
X-303083Y862006D01*
X-285083Y862006D01*
X-285083Y880006D01*
G37*
X-225910Y822730D02*
G54D13*
D03*
X-324550Y822270D02*
G54D13*
D03*
X-343180Y885000D02*
G54D14*
D03*
X-393636Y884545D02*
G54D14*
D03*
X-69545Y733182D02*
G54D15*
D03*
X-105455Y743636D02*
G54D15*
D03*
X-130455Y742273D02*
G54D15*
D03*
X-290769Y371538D02*
G54D15*
D03*
X-412308Y370769D02*
G54D15*
D03*
X-231820Y451050D02*
G54D16*
D03*
X-284270Y449300D02*
G54D16*
D03*
X-273390Y288710D02*
G54D17*
D03*
X-179032Y289516D02*
G54D17*
D03*
X-225910Y693640D02*
G54D18*
D03*
X-251364Y694091D02*
G54D18*
D03*
X-299545Y694545D02*
G54D18*
D03*
X-325000Y694545D02*
G54D18*
D03*
X-144060Y582870D02*
G54D19*
D03*
X-146154Y554545D02*
G54D19*
D03*
X-84000Y929250D02*
G54D20*
D03*
X-104032Y929032D02*
G54D20*
D03*
X-120968Y929032D02*
G54D20*
D03*
X-139785Y929301D02*
G54D20*
D03*
X-103306Y911364D02*
G54D20*
D03*
X-103306Y891942D02*
G54D20*
D03*
X-129839Y901882D02*
G54D20*
D03*
X-106183Y871774D02*
G54D20*
D03*
X-125538Y871505D02*
G54D20*
D03*
X-106294Y850699D02*
G54D20*
D03*
X-126573Y851049D02*
G54D20*
D03*
X-105590Y720630D02*
G54D21*
D03*
X-129720Y722030D02*
G54D21*
D03*
X-118186Y556817D02*
G54D22*
D03*
X-118636Y580000D02*
G54D22*
D03*
X-294755Y536364D02*
G54D22*
D03*
X-294755Y500350D02*
G54D22*
D03*
X-296505Y897550D02*
G54D23*
D03*
X-272378Y897552D02*
G54D22*
D03*
X-82870Y910490D02*
G54D24*
D03*
X-83220Y891960D02*
G54D24*
D03*
X-237280Y420710D02*
G54D25*
D03*
X-266864Y422485D02*
G54D25*
D03*
X-236686Y360355D02*
G54D25*
D03*
X-268639Y360355D02*
G54D25*
D03*
X-321890Y507690D02*
G54D26*
D03*
X-357988Y508284D02*
G54D26*
D03*
X-321894Y482249D02*
G54D26*
D03*
X-357396Y481657D02*
G54D26*
D03*
G36*
X-23077Y986014D02*
X-300350Y986014D01*
X-301748Y987413D01*
X-301748Y967483D01*
X-300350Y966084D01*
X-64685Y966084D01*
X-64336Y966434D01*
X-23427Y966434D01*
X-22378Y965385D01*
X-22378Y985315D01*
X-23077Y986014D01*
G37*
G54D27*
X-23077Y986014D02*
X-300350Y986014D01*
X-301748Y987413D01*
X-301748Y967483D01*
X-300350Y966084D01*
X-64685Y966084D01*
X-64336Y966434D01*
X-23427Y966434D01*
X-22378Y965385D01*
X-22378Y985315D01*
X-23077Y986014D01*
G36*
X-22378Y965385D02*
X-67832Y965385D01*
X-68182Y965035D01*
X-68182Y963986D01*
X-64685Y960490D01*
X-64685Y940909D01*
X-62937Y939161D01*
X-85315Y939161D01*
X-88112Y936364D01*
X-88112Y926573D01*
X-91608Y923077D01*
X-68881Y923077D01*
X-68531Y923427D01*
X-66084Y920979D01*
X-66084Y915035D01*
X-65734Y914685D01*
X-65734Y884615D01*
X-24126Y884615D01*
X-22028Y886713D01*
X-22028Y965035D01*
X-22378Y965385D01*
G37*
G54D27*
X-22378Y965385D02*
X-67832Y965385D01*
X-68182Y965035D01*
X-68182Y963986D01*
X-64685Y960490D01*
X-64685Y940909D01*
X-62937Y939161D01*
X-85315Y939161D01*
X-88112Y936364D01*
X-88112Y926573D01*
X-91608Y923077D01*
X-68881Y923077D01*
X-68531Y923427D01*
X-66084Y920979D01*
X-66084Y915035D01*
X-65734Y914685D01*
X-65734Y884615D01*
X-24126Y884615D01*
X-22028Y886713D01*
X-22028Y965035D01*
X-22378Y965385D01*
G36*
X-22028Y886713D02*
X-22028Y822028D01*
X-22727Y821329D01*
X-82168Y821329D01*
X-82168Y824126D01*
X-83566Y825524D01*
X-83566Y859790D01*
X-86364Y862587D01*
X-87413Y862587D01*
X-92657Y867832D01*
X-111189Y867832D01*
X-111888Y867133D01*
X-111888Y876573D01*
X-112587Y877273D01*
X-75175Y877273D01*
X-74476Y877972D01*
X-72378Y877972D01*
X-65734Y884615D01*
X-24126Y884615D01*
X-22028Y886713D01*
G37*
G54D27*
X-22028Y886713D02*
X-22028Y822028D01*
X-22727Y821329D01*
X-82168Y821329D01*
X-82168Y824126D01*
X-83566Y825524D01*
X-83566Y859790D01*
X-86364Y862587D01*
X-87413Y862587D01*
X-92657Y867832D01*
X-111189Y867832D01*
X-111888Y867133D01*
X-111888Y876573D01*
X-112587Y877273D01*
X-75175Y877273D01*
X-74476Y877972D01*
X-72378Y877972D01*
X-65734Y884615D01*
X-24126Y884615D01*
X-22028Y886713D01*
G36*
X-73776Y944755D02*
X-73776Y960490D01*
X-74476Y961189D01*
X-190210Y961189D01*
X-191259Y962238D01*
X-228322Y925175D01*
X-228322Y924476D01*
X-230769Y922028D01*
X-252098Y922028D01*
X-258042Y927972D01*
X-258042Y940559D01*
X-267133Y949650D01*
X-283916Y949650D01*
X-283916Y922028D01*
X-284266Y921678D01*
X-284266Y918881D01*
X-278671Y913287D01*
X-278671Y886713D01*
X-275175Y883217D01*
X-275175Y824126D01*
X-276573Y822727D01*
X-276573Y819580D01*
X-269930Y812937D01*
X-217483Y812937D01*
X-216434Y811888D01*
X-216434Y817133D01*
X-213287Y820280D01*
X-213287Y834965D01*
X-215385Y837063D01*
X-215385Y838112D01*
X-231119Y853846D01*
X-231119Y895105D01*
X-232168Y896154D01*
X-229720Y896154D01*
X-209790Y916084D01*
X-169580Y916084D01*
X-168531Y915035D01*
X-168531Y914336D01*
X-158741Y904545D01*
X-158741Y889510D01*
X-156294Y887063D01*
X-145455Y887063D01*
X-144406Y886014D01*
X-144406Y886713D01*
X-136713Y894406D01*
X-136014Y894406D01*
X-134266Y896154D01*
X-123776Y896154D01*
X-121329Y898601D01*
X-121329Y905594D01*
X-121678Y905944D01*
X-130420Y905944D01*
X-133217Y908741D01*
X-133217Y940210D01*
X-129021Y944406D01*
X-74126Y944406D01*
X-73776Y944755D01*
G37*
G54D27*
X-73776Y944755D02*
X-73776Y960490D01*
X-74476Y961189D01*
X-190210Y961189D01*
X-191259Y962238D01*
X-228322Y925175D01*
X-228322Y924476D01*
X-230769Y922028D01*
X-252098Y922028D01*
X-258042Y927972D01*
X-258042Y940559D01*
X-267133Y949650D01*
X-283916Y949650D01*
X-283916Y922028D01*
X-284266Y921678D01*
X-284266Y918881D01*
X-278671Y913287D01*
X-278671Y886713D01*
X-275175Y883217D01*
X-275175Y824126D01*
X-276573Y822727D01*
X-276573Y819580D01*
X-269930Y812937D01*
X-217483Y812937D01*
X-216434Y811888D01*
X-216434Y817133D01*
X-213287Y820280D01*
X-213287Y834965D01*
X-215385Y837063D01*
X-215385Y838112D01*
X-231119Y853846D01*
X-231119Y895105D01*
X-232168Y896154D01*
X-229720Y896154D01*
X-209790Y916084D01*
X-169580Y916084D01*
X-168531Y915035D01*
X-168531Y914336D01*
X-158741Y904545D01*
X-158741Y889510D01*
X-156294Y887063D01*
X-145455Y887063D01*
X-144406Y886014D01*
X-144406Y886713D01*
X-136713Y894406D01*
X-136014Y894406D01*
X-134266Y896154D01*
X-123776Y896154D01*
X-121329Y898601D01*
X-121329Y905594D01*
X-121678Y905944D01*
X-130420Y905944D01*
X-133217Y908741D01*
X-133217Y940210D01*
X-129021Y944406D01*
X-74126Y944406D01*
X-73776Y944755D01*
G36*
X-76923Y896504D02*
X-107692Y896504D01*
X-109091Y897902D01*
X-109091Y895455D01*
X-113636Y890909D01*
X-113636Y889510D01*
X-115035Y888112D01*
X-131818Y888112D01*
X-132168Y888462D01*
X-140210Y880420D01*
X-140210Y849301D01*
X-139860Y848951D01*
X-128671Y848951D01*
X-126573Y851049D01*
X-126573Y854895D01*
X-127622Y855944D01*
X-131818Y855944D01*
X-133566Y854196D01*
X-137063Y854196D01*
X-137063Y877972D01*
X-130769Y884266D01*
X-79021Y884266D01*
X-77972Y885315D01*
X-77972Y895455D01*
X-76923Y896504D01*
G37*
G54D27*
X-76923Y896504D02*
X-107692Y896504D01*
X-109091Y897902D01*
X-109091Y895455D01*
X-113636Y890909D01*
X-113636Y889510D01*
X-115035Y888112D01*
X-131818Y888112D01*
X-132168Y888462D01*
X-140210Y880420D01*
X-140210Y849301D01*
X-139860Y848951D01*
X-128671Y848951D01*
X-126573Y851049D01*
X-126573Y854895D01*
X-127622Y855944D01*
X-131818Y855944D01*
X-133566Y854196D01*
X-137063Y854196D01*
X-137063Y877972D01*
X-130769Y884266D01*
X-79021Y884266D01*
X-77972Y885315D01*
X-77972Y895455D01*
X-76923Y896504D01*
G36*
X-120280Y847203D02*
X-120280Y825874D01*
X-120629Y825524D01*
X-120629Y823427D01*
X-123776Y820280D01*
X-150699Y820280D01*
X-158392Y827972D01*
X-158392Y840909D01*
X-159091Y841608D01*
X-159091Y841958D01*
X-153147Y847902D01*
X-120979Y847902D01*
X-120280Y847203D01*
G37*
G54D27*
X-120280Y847203D02*
X-120280Y825874D01*
X-120629Y825524D01*
X-120629Y823427D01*
X-123776Y820280D01*
X-150699Y820280D01*
X-158392Y827972D01*
X-158392Y840909D01*
X-159091Y841608D01*
X-159091Y841958D01*
X-153147Y847902D01*
X-120979Y847902D01*
X-120280Y847203D01*
G36*
X-125538Y871505D02*
X-123656Y871505D01*
X-110753Y858602D01*
X-106183Y858602D01*
X-103763Y856183D01*
X-103763Y842204D01*
X-103495Y841935D01*
X-102419Y841935D01*
X-95699Y835215D01*
X-95699Y823118D01*
X-96774Y822043D01*
X-109946Y822043D01*
X-113441Y825538D01*
X-113441Y838978D01*
X-113978Y839516D01*
X-109677Y839516D01*
X-106989Y842204D01*
X-106989Y850004D01*
X-106294Y850699D01*
X-108764Y850699D01*
X-124462Y866398D01*
X-124462Y870430D01*
X-125538Y871505D01*
G37*
G54D27*
X-125538Y871505D02*
X-123656Y871505D01*
X-110753Y858602D01*
X-106183Y858602D01*
X-103763Y856183D01*
X-103763Y842204D01*
X-103495Y841935D01*
X-102419Y841935D01*
X-95699Y835215D01*
X-95699Y823118D01*
X-96774Y822043D01*
X-109946Y822043D01*
X-113441Y825538D01*
X-113441Y838978D01*
X-113978Y839516D01*
X-109677Y839516D01*
X-106989Y842204D01*
X-106989Y850004D01*
X-106294Y850699D01*
X-108764Y850699D01*
X-124462Y866398D01*
X-124462Y870430D01*
X-125538Y871505D01*
G36*
X-301748Y987413D02*
X-412587Y987413D01*
X-414091Y985909D01*
X-414091Y984091D01*
X-417273Y980909D01*
X-417273Y940000D01*
X-416818Y939545D01*
X-415455Y939545D01*
X-410455Y934545D01*
X-326818Y934545D01*
X-325909Y933636D01*
X-320000Y933636D01*
X-306818Y920455D01*
X-306818Y866364D01*
X-302273Y861818D01*
X-282273Y861818D01*
X-282273Y880909D01*
X-288636Y887273D01*
X-288636Y906818D01*
X-291364Y909545D01*
X-291364Y955909D01*
X-290909Y956364D01*
X-289091Y956364D01*
X-281364Y964091D01*
X-281364Y983182D01*
X-285909Y987727D01*
X-301434Y987727D01*
X-301748Y987413D01*
G37*
G54D27*
X-301748Y987413D02*
X-412587Y987413D01*
X-414091Y985909D01*
X-414091Y984091D01*
X-417273Y980909D01*
X-417273Y940000D01*
X-416818Y939545D01*
X-415455Y939545D01*
X-410455Y934545D01*
X-326818Y934545D01*
X-325909Y933636D01*
X-320000Y933636D01*
X-306818Y920455D01*
X-306818Y866364D01*
X-302273Y861818D01*
X-282273Y861818D01*
X-282273Y880909D01*
X-288636Y887273D01*
X-288636Y906818D01*
X-291364Y909545D01*
X-291364Y955909D01*
X-290909Y956364D01*
X-289091Y956364D01*
X-281364Y964091D01*
X-281364Y983182D01*
X-285909Y987727D01*
X-301434Y987727D01*
X-301748Y987413D01*
G36*
X-337273Y913636D02*
X-413636Y913636D01*
X-415000Y912273D01*
X-415000Y909091D01*
X-418636Y905455D01*
X-418636Y809545D01*
X-418182Y809091D01*
X-317727Y809091D01*
X-317273Y809545D01*
X-317273Y810909D01*
X-312727Y815455D01*
X-312727Y827727D01*
X-315000Y830000D01*
X-315000Y831818D01*
X-319091Y835909D01*
X-319091Y894545D01*
X-319545Y895000D01*
X-319545Y895909D01*
X-337273Y913636D01*
G37*
G54D27*
X-337273Y913636D02*
X-413636Y913636D01*
X-415000Y912273D01*
X-415000Y909091D01*
X-418636Y905455D01*
X-418636Y809545D01*
X-418182Y809091D01*
X-317727Y809091D01*
X-317273Y809545D01*
X-317273Y810909D01*
X-312727Y815455D01*
X-312727Y827727D01*
X-315000Y830000D01*
X-315000Y831818D01*
X-319091Y835909D01*
X-319091Y894545D01*
X-319545Y895000D01*
X-319545Y895909D01*
X-337273Y913636D01*
G36*
X-33136Y745562D02*
X-76923Y745562D01*
X-78107Y744379D01*
X-78107Y583432D01*
X-81065Y580473D01*
X-81657Y580473D01*
X-96450Y565680D01*
X-169822Y565680D01*
X-172189Y563314D01*
X-172189Y566272D01*
X-184615Y578698D01*
X-210651Y578698D01*
X-212426Y580473D01*
X-212426Y578106D01*
X-215976Y574556D01*
X-215976Y475148D01*
X-218935Y472189D01*
X-218935Y466272D01*
X-221893Y463314D01*
X-240237Y463314D01*
X-244379Y459172D01*
X-244379Y413610D01*
X-243195Y412426D01*
X-112426Y412426D01*
X-111834Y413018D01*
X-111243Y413018D01*
X-101775Y422485D01*
X-101775Y536686D01*
X-101183Y537278D01*
X-97633Y537278D01*
X-58580Y576331D01*
X-39053Y576331D01*
X-36095Y579290D01*
X-36095Y585207D01*
X-23669Y597633D01*
X-23669Y736095D01*
X-33136Y745562D01*
G37*
G54D27*
X-33136Y745562D02*
X-76923Y745562D01*
X-78107Y744379D01*
X-78107Y583432D01*
X-81065Y580473D01*
X-81657Y580473D01*
X-96450Y565680D01*
X-169822Y565680D01*
X-172189Y563314D01*
X-172189Y566272D01*
X-184615Y578698D01*
X-210651Y578698D01*
X-212426Y580473D01*
X-212426Y578106D01*
X-215976Y574556D01*
X-215976Y475148D01*
X-218935Y472189D01*
X-218935Y466272D01*
X-221893Y463314D01*
X-240237Y463314D01*
X-244379Y459172D01*
X-244379Y413610D01*
X-243195Y412426D01*
X-112426Y412426D01*
X-111834Y413018D01*
X-111243Y413018D01*
X-101775Y422485D01*
X-101775Y536686D01*
X-101183Y537278D01*
X-97633Y537278D01*
X-58580Y576331D01*
X-39053Y576331D01*
X-36095Y579290D01*
X-36095Y585207D01*
X-23669Y597633D01*
X-23669Y736095D01*
X-33136Y745562D01*
G36*
X-227692Y721538D02*
X-257692Y721538D01*
X-258462Y722308D01*
X-258462Y719231D01*
X-263077Y714615D01*
X-263077Y672308D01*
X-266154Y669231D01*
X-266154Y666923D01*
X-275385Y657692D01*
X-293846Y657692D01*
X-316154Y635385D01*
X-316154Y538462D01*
X-317692Y536923D01*
X-308462Y527692D01*
X-255385Y527692D01*
X-255385Y643846D01*
X-252308Y646923D01*
X-252308Y649231D01*
X-221538Y680000D01*
X-221538Y709231D01*
X-219231Y711538D01*
X-219231Y713077D01*
X-227692Y721538D01*
G37*
G54D27*
X-227692Y721538D02*
X-257692Y721538D01*
X-258462Y722308D01*
X-258462Y719231D01*
X-263077Y714615D01*
X-263077Y672308D01*
X-266154Y669231D01*
X-266154Y666923D01*
X-275385Y657692D01*
X-293846Y657692D01*
X-316154Y635385D01*
X-316154Y538462D01*
X-317692Y536923D01*
X-308462Y527692D01*
X-255385Y527692D01*
X-255385Y643846D01*
X-252308Y646923D01*
X-252308Y649231D01*
X-221538Y680000D01*
X-221538Y709231D01*
X-219231Y711538D01*
X-219231Y713077D01*
X-227692Y721538D01*
G36*
X-123077Y753846D02*
X-175740Y753846D01*
X-177515Y752071D01*
X-178698Y752071D01*
X-192308Y738462D01*
X-192308Y666272D01*
X-189941Y663905D01*
X-189941Y660947D01*
X-172781Y643787D01*
X-172781Y604734D01*
X-172189Y604142D01*
X-198225Y604142D01*
X-198225Y603550D01*
X-204142Y597633D01*
X-204142Y591716D01*
X-199408Y586982D01*
X-171598Y586982D01*
X-169822Y588757D01*
X-169822Y589941D01*
X-163314Y596450D01*
X-163314Y700000D01*
X-162722Y700592D01*
X-162722Y705917D01*
X-154438Y714201D01*
X-124852Y714201D01*
X-123669Y715385D01*
X-123669Y753254D01*
X-123077Y753846D01*
G37*
G54D27*
X-123077Y753846D02*
X-175740Y753846D01*
X-177515Y752071D01*
X-178698Y752071D01*
X-192308Y738462D01*
X-192308Y666272D01*
X-189941Y663905D01*
X-189941Y660947D01*
X-172781Y643787D01*
X-172781Y604734D01*
X-172189Y604142D01*
X-198225Y604142D01*
X-198225Y603550D01*
X-204142Y597633D01*
X-204142Y591716D01*
X-199408Y586982D01*
X-171598Y586982D01*
X-169822Y588757D01*
X-169822Y589941D01*
X-163314Y596450D01*
X-163314Y700000D01*
X-162722Y700592D01*
X-162722Y705917D01*
X-154438Y714201D01*
X-124852Y714201D01*
X-123669Y715385D01*
X-123669Y753254D01*
X-123077Y753846D01*
G36*
X-95858Y746154D02*
X-114201Y746154D01*
X-114793Y746746D01*
X-114793Y713609D01*
X-111243Y710059D01*
X-111243Y700592D01*
X-111834Y700000D01*
X-114793Y700000D01*
X-116568Y698225D01*
X-116568Y592899D01*
X-115976Y592308D01*
X-155030Y592308D01*
X-156213Y591124D01*
X-156213Y589941D01*
X-159172Y586982D01*
X-159172Y577515D01*
X-156268Y573526D01*
X-130695Y573707D01*
X-108305Y573381D01*
X-102959Y573373D01*
X-102959Y579882D01*
X-98817Y584024D01*
X-98817Y743195D01*
X-95858Y746154D01*
G37*
G54D27*
X-95858Y746154D02*
X-114201Y746154D01*
X-114793Y746746D01*
X-114793Y713609D01*
X-111243Y710059D01*
X-111243Y700592D01*
X-111834Y700000D01*
X-114793Y700000D01*
X-116568Y698225D01*
X-116568Y592899D01*
X-115976Y592308D01*
X-155030Y592308D01*
X-156213Y591124D01*
X-156213Y589941D01*
X-159172Y586982D01*
X-159172Y577515D01*
X-156268Y573526D01*
X-130695Y573707D01*
X-108305Y573381D01*
X-102959Y573373D01*
X-102959Y579882D01*
X-98817Y584024D01*
X-98817Y743195D01*
X-95858Y746154D01*
G36*
X-192657Y372378D02*
X-241958Y372378D01*
X-242308Y372727D01*
X-242308Y370979D01*
X-244056Y369231D01*
X-244056Y346504D01*
X-244755Y345804D01*
X-243357Y345804D01*
X-234615Y337063D01*
X-208042Y337063D01*
X-205594Y334615D01*
X-200000Y334615D01*
X-194406Y329021D01*
X-194406Y327273D01*
X-190210Y323077D01*
X-190210Y273776D01*
X-191958Y272028D01*
X-165035Y272028D01*
X-165035Y349650D01*
X-164336Y350350D01*
X-166783Y350350D01*
X-187063Y370629D01*
X-190909Y370629D01*
X-192657Y372378D01*
G37*
G54D27*
X-192657Y372378D02*
X-241958Y372378D01*
X-242308Y372727D01*
X-242308Y370979D01*
X-244056Y369231D01*
X-244056Y346504D01*
X-244755Y345804D01*
X-243357Y345804D01*
X-234615Y337063D01*
X-208042Y337063D01*
X-205594Y334615D01*
X-200000Y334615D01*
X-194406Y329021D01*
X-194406Y327273D01*
X-190210Y323077D01*
X-190210Y273776D01*
X-191958Y272028D01*
X-165035Y272028D01*
X-165035Y349650D01*
X-164336Y350350D01*
X-166783Y350350D01*
X-187063Y370629D01*
X-190909Y370629D01*
X-192657Y372378D01*
G36*
X-260950Y347727D02*
X-295661Y347727D01*
X-296281Y348347D01*
X-296281Y352686D01*
X-299380Y355785D01*
X-299380Y371281D01*
X-300413Y372314D01*
X-300413Y374380D01*
X-294215Y380578D01*
X-268182Y380578D01*
X-267769Y380165D01*
X-266529Y380165D01*
X-260537Y374174D01*
X-260537Y348140D01*
X-260950Y347727D01*
G37*
G54D27*
X-260950Y347727D02*
X-295661Y347727D01*
X-296281Y348347D01*
X-296281Y352686D01*
X-299380Y355785D01*
X-299380Y371281D01*
X-300413Y372314D01*
X-300413Y374380D01*
X-294215Y380578D01*
X-268182Y380578D01*
X-267769Y380165D01*
X-266529Y380165D01*
X-260537Y374174D01*
X-260537Y348140D01*
X-260950Y347727D01*
G36*
X-260638Y304255D02*
X-387234Y304255D01*
X-395745Y295745D01*
X-395745Y305319D01*
X-403192Y312766D01*
X-403192Y375532D01*
X-398936Y379787D01*
X-415957Y379787D01*
X-417021Y378723D01*
X-417021Y259574D01*
X-418085Y258511D01*
X-418085Y257447D01*
X-411702Y251064D01*
X-264894Y251064D01*
X-257447Y258511D01*
X-257447Y301064D01*
X-260638Y304255D01*
G37*
G54D27*
X-260638Y304255D02*
X-387234Y304255D01*
X-395745Y295745D01*
X-395745Y305319D01*
X-403192Y312766D01*
X-403192Y375532D01*
X-398936Y379787D01*
X-415957Y379787D01*
X-417021Y378723D01*
X-417021Y259574D01*
X-418085Y258511D01*
X-418085Y257447D01*
X-411702Y251064D01*
X-264894Y251064D01*
X-257447Y258511D01*
X-257447Y301064D01*
X-260638Y304255D01*
G36*
X-293711Y719497D02*
X-393711Y719497D01*
X-396226Y722013D01*
X-416352Y701887D01*
X-416352Y622642D01*
X-418239Y620755D01*
X-418239Y611321D01*
X-416352Y609434D01*
X-413208Y609434D01*
X-370440Y566667D01*
X-370440Y425786D01*
X-366667Y422013D01*
X-366038Y422013D01*
X-356604Y412579D01*
X-264780Y412579D01*
X-264780Y433333D01*
X-266667Y435220D01*
X-269811Y435220D01*
X-296226Y461635D01*
X-338994Y461635D01*
X-341509Y459120D01*
X-341509Y463522D01*
X-351572Y473585D01*
X-351572Y669182D01*
X-350314Y670440D01*
X-350314Y671069D01*
X-337736Y683648D01*
X-297484Y683648D01*
X-289308Y691824D01*
X-289308Y715094D01*
X-293711Y719497D01*
G37*
G54D27*
X-293711Y719497D02*
X-393711Y719497D01*
X-396226Y722013D01*
X-416352Y701887D01*
X-416352Y622642D01*
X-418239Y620755D01*
X-418239Y611321D01*
X-416352Y609434D01*
X-413208Y609434D01*
X-370440Y566667D01*
X-370440Y425786D01*
X-366667Y422013D01*
X-366038Y422013D01*
X-356604Y412579D01*
X-264780Y412579D01*
X-264780Y433333D01*
X-266667Y435220D01*
X-269811Y435220D01*
X-296226Y461635D01*
X-338994Y461635D01*
X-341509Y459120D01*
X-341509Y463522D01*
X-351572Y473585D01*
X-351572Y669182D01*
X-350314Y670440D01*
X-350314Y671069D01*
X-337736Y683648D01*
X-297484Y683648D01*
X-289308Y691824D01*
X-289308Y715094D01*
X-293711Y719497D01*
G36*
X-313011Y516729D02*
X-330112Y516729D01*
X-330855Y515985D01*
X-330855Y474349D01*
X-330483Y473978D01*
X-298513Y473978D01*
X-297770Y474721D01*
X-292193Y474721D01*
X-289963Y476952D01*
X-289963Y506320D01*
X-292193Y508550D01*
X-304461Y508550D01*
X-305204Y507807D01*
X-305204Y508922D01*
X-313011Y516729D01*
G37*
G54D27*
X-313011Y516729D02*
X-330112Y516729D01*
X-330855Y515985D01*
X-330855Y474349D01*
X-330483Y473978D01*
X-298513Y473978D01*
X-297770Y474721D01*
X-292193Y474721D01*
X-289963Y476952D01*
X-289963Y506320D01*
X-292193Y508550D01*
X-304461Y508550D01*
X-305204Y507807D01*
X-305204Y508922D01*
X-313011Y516729D01*
G54D28*
X-105455Y743636D02*
X-100783Y752670D01*
X-101386Y766099D01*
X-105660Y767296D01*
X-193082Y767296D01*
X-194969Y765409D01*
X-194969Y764780D01*
X-206289Y753459D01*
X-206289Y639623D01*
X-204461Y636307D01*
X-192089Y620099D01*
G54D28*
X-82870Y910490D02*
X-102432Y910490D01*
X-103306Y911364D01*
X-103306Y928306D01*
X-104032Y929032D01*
G54D28*
X-104032Y929032D02*
X-120968Y929032D01*
%LNAUGENFREISTANZEN*%
%LPC*%
X-191946Y594627D02*
G54D29*
D03*
X-190500Y571500D02*
G54D29*
D03*
X-192089Y620099D02*
G54D29*
D03*
X-266700Y622300D02*
G54D29*
D03*
X-266700Y596900D02*
G54D29*
D03*
X-266700Y571500D02*
G54D29*
D03*
X-266700Y546100D02*
G54D29*
D03*
X-190500Y546100D02*
G54D29*
D03*
X-57690Y952450D02*
G54D30*
D03*
X-82170Y952800D02*
G54D30*
D03*
X-276573Y939510D02*
G54D30*
D03*
X-342268Y951800D02*
G54D31*
D03*
X-150350Y894755D02*
G54D30*
D03*
X-148601Y833916D02*
G54D30*
D03*
X-129720Y831119D02*
G54D30*
D03*
X-104895Y831818D02*
G54D30*
D03*
X-69930Y831119D02*
G54D30*
D03*
X-301818Y939545D02*
G54D30*
D03*
X-394628Y951860D02*
G54D31*
D03*
X-268639Y869822D02*
G54D30*
D03*
X-294083Y871006D02*
G54D30*
D03*
X-225910Y822730D02*
G54D32*
D03*
X-324550Y822270D02*
G54D32*
D03*
X-343180Y885000D02*
G54D33*
D03*
X-393636Y884545D02*
G54D33*
D03*
X-69545Y733182D02*
G54D34*
D03*
X-105455Y743636D02*
G54D34*
D03*
X-130455Y742273D02*
G54D34*
D03*
X-290769Y371538D02*
G54D34*
D03*
X-412308Y370769D02*
G54D34*
D03*
X-231820Y451050D02*
G54D35*
D03*
X-284270Y449300D02*
G54D35*
D03*
X-273390Y288710D02*
G54D32*
D03*
X-179032Y289516D02*
G54D32*
D03*
X-225910Y693640D02*
G54D35*
D03*
X-251364Y694091D02*
G54D35*
D03*
X-299545Y694545D02*
G54D35*
D03*
X-325000Y694545D02*
G54D35*
D03*
X-144060Y582870D02*
G54D34*
D03*
X-146154Y554545D02*
G54D34*
D03*
M02*
